<svg id="visual" viewBox="0 0 900 600" width="900" height="600" xmlns="http://www.w3.org/2000/svg" xmlns:xlink="http://www.w3.org/1999/xlink" version="1.1"><rect x="0" y="0" width="900" height="600" fill="#001220"></rect><path d="M0 427L21.5 420.7C43 414.3 86 401.7 128.8 399.2C171.7 396.7 214.3 404.3 257.2 408.2C300 412 343 412 385.8 417.3C428.7 422.7 471.3 433.3 514.2 438.5C557 443.7 600 443.3 642.8 429.7C685.7 416 728.3 389 771.2 382.7C814 376.3 857 390.7 878.5 397.8L900 405L900 601L878.5 601C857 601 814 601 771.2 601C728.3 601 685.7 601 642.8 601C600 601 557 601 514.2 601C471.3 601 428.7 601 385.8 601C343 601 300 601 257.2 601C214.3 601 171.7 601 128.8 601C86 601 43 601 21.5 601L0 601Z" fill="#fa7268"></path><path d="M0 449L21.5 446C43 443 86 437 128.8 439.2C171.7 441.3 214.3 451.7 257.2 448.7C300 445.7 343 429.3 385.8 430C428.7 430.7 471.3 448.3 514.2 447.8C557 447.3 600 428.7 642.8 422.7C685.7 416.7 728.3 423.3 771.2 434.8C814 446.3 857 462.7 878.5 470.8L900 479L900 601L878.5 601C857 601 814 601 771.2 601C728.3 601 685.7 601 642.8 601C600 601 557 601 514.2 601C471.3 601 428.7 601 385.8 601C343 601 300 601 257.2 601C214.3 601 171.7 601 128.8 601C86 601 43 601 21.5 601L0 601Z" fill="#ef5f67"></path><path d="M0 448L21.5 456.7C43 465.3 86 482.7 128.8 482.2C171.7 481.7 214.3 463.3 257.2 464.5C300 465.7 343 486.3 385.8 497.3C428.7 508.3 471.3 509.7 514.2 504C557 498.3 600 485.7 642.8 482.2C685.7 478.7 728.3 484.3 771.2 480.5C814 476.7 857 463.3 878.5 456.7L900 450L900 601L878.5 601C857 601 814 601 771.2 601C728.3 601 685.7 601 642.8 601C600 601 557 601 514.2 601C471.3 601 428.7 601 385.8 601C343 601 300 601 257.2 601C214.3 601 171.7 601 128.8 601C86 601 43 601 21.5 601L0 601Z" fill="#e34c67"></path><path d="M0 527L21.5 521.7C43 516.3 86 505.7 128.8 504C171.7 502.3 214.3 509.7 257.2 510.7C300 511.7 343 506.3 385.8 506.3C428.7 506.3 471.3 511.7 514.2 515.3C557 519 600 521 642.8 521.3C685.7 521.7 728.3 520.3 771.2 519.7C814 519 857 519 878.5 519L900 519L900 601L878.5 601C857 601 814 601 771.2 601C728.3 601 685.7 601 642.8 601C600 601 557 601 514.2 601C471.3 601 428.7 601 385.8 601C343 601 300 601 257.2 601C214.3 601 171.7 601 128.8 601C86 601 43 601 21.5 601L0 601Z" fill="#d53867"></path><path d="M0 527L21.5 527.2C43 527.3 86 527.7 128.8 532.5C171.7 537.3 214.3 546.7 257.2 552.5C300 558.3 343 560.7 385.8 559.3C428.7 558 471.3 553 514.2 548.7C557 544.3 600 540.7 642.8 543C685.7 545.3 728.3 553.7 771.2 552.7C814 551.7 857 541.3 878.5 536.2L900 531L900 601L878.5 601C857 601 814 601 771.2 601C728.3 601 685.7 601 642.8 601C600 601 557 601 514.2 601C471.3 601 428.7 601 385.8 601C343 601 300 601 257.2 601C214.3 601 171.7 601 128.8 601C86 601 43 601 21.5 601L0 601Z" fill="#c62368"></path></svg>